<svg xmlns="http://www.w3.org/2000/svg" width="33.848" height="38" viewBox="0 0 33.848 38">
  <path id="Combined-Shape" d="M667.922,0a17.186,17.186,0,0,1,16.922,17.439,17.186,17.186,0,0,1-16.922,17.439q-.449,0-.893-.024v.024L657.7,38l1.143-5.844A17.556,17.556,0,0,1,651,17.439,17.186,17.186,0,0,1,667.922,0Zm-1.484,15.437h-4.75V27.313h4.75Zm6.955-6.531h-4.58V27.313h4.58V19.132h2.545v-4.6h-2.545Zm-6.955,0h-4.75v4.75h4.75Z" transform="translate(-650.998)" fill="#4cc5d2" fill-rule="evenodd"/>
</svg>
